<?xml version="1.0" encoding="utf-8"?>
<!-- Generator: Adobe Illustrator 26.3.1, SVG Export Plug-In . SVG Version: 6.00 Build 0)  -->
<svg version="1.1" id="Calque_1" xmlns="http://www.w3.org/2000/svg" xmlns:xlink="http://www.w3.org/1999/xlink" x="0px" y="0px"
	 viewBox="0 0 26.2 26.5" style="enable-background:new 0 0 26.2 26.5;" xml:space="preserve">
<style type="text/css">
	.st0{fill:#FFFFFF;}
</style>
<path class="st0" d="M2.9,0.9c0.2,1.2,0.5,2.2,0.9,3.3c0,0.1,0.1,0.3,0.1,0.4C4,4.7,3.9,4.7,4,4.8C3.9,4.6,4.1,4.9,4,4.9
	c0.1,0.3,0.3,0.6,0.4,0.8C4.6,6.1,5,6.5,5.2,7c0.1,0.3,0.3,0.4,0.4,0.6c0.1,0.1,0.1,0.1,0.1,0.2c0,0.2,0.1,0.4,0,0.2
	C5.8,8.1,5.8,8.3,6,8.4c0.4,0.5,0.8,0.9,1.2,1.3C7.4,10,7.6,10,7.8,10.2c0.1,0.1,0.3,0.1,0.4,0.2c0.1,0.1,0.1,0.1,0.1,0.1
	c0.1,0.1,0.3,0.1,0.1,0.1c0.6,0.3,1.1,0.6,1.6,1c3.8,2.4,8.2,4.1,11.4,7.4c1.6,1.8,2.9,3.9,3.4,6.2c0.1,0.5-0.1,0.8-0.6,1
	c-0.4,0.1-0.8-0.1-1-0.6c-0.1-0.4-0.2-0.9-0.4-1.4c0-0.1-0.1-0.2-0.1-0.4c-0.1-0.1-0.1-0.2-0.1-0.1c-0.1-0.1,0-0.1-0.1-0.2
	c-0.1-0.3-0.2-0.5-0.3-0.7c-0.2-0.5-0.5-0.9-0.8-1.3c-0.1-0.1-0.1-0.1-0.1-0.2c-0.1-0.1-0.1-0.3-0.1-0.1c-0.1-0.1-0.1-0.3-0.2-0.4
	c-0.1-0.3-0.4-0.5-0.5-0.6c-0.4-0.4-0.7-0.7-1.1-1.1c-0.2-0.2-0.4-0.3-0.6-0.5c-0.1-0.1-0.2-0.2-0.4-0.2c-0.1-0.1-0.1-0.1-0.1-0.1
	c0.1-0.1-0.1-0.1,0.1-0.1c-0.8-0.6-1.7-1.1-2.6-1.8c-4.1-2.1-8.8-4-11.7-8.1C2.7,6.2,1.8,3.7,1.3,1.2c-0.1-0.4,0.2-0.9,0.6-1
	C2.3,0.2,2.8,0.4,2.9,0.9L2.9,0.9z"/>
<path class="st0" d="M3,25.8c0.2-1.2,0.5-2.2,0.9-3.3c0-0.1,0.1-0.3,0.1-0.4C4.1,22,4,22,4.1,21.9c-0.1,0.2,0.1-0.1,0-0.1
	c0.1-0.3,0.3-0.6,0.4-0.8c0.2-0.5,0.5-1.1,0.8-1.5c0.1-0.3,0.3-0.4,0.4-0.6c0.1-0.1,0.1-0.1,0.1-0.2c0.1-0.1,0.1-0.3,0.1-0.1
	C6,18.5,6,18.3,6.2,18.2c0.4-0.5,0.8-0.9,1.2-1.3c0.2-0.2,0.4-0.3,0.6-0.5c0-0.3,0.2-0.3,0.3-0.4s0.1-0.1,0.1-0.1
	c0.1-0.1,0.3-0.1,0.1-0.1c0.5-0.4,1-0.7,1.5-1.1c3.8-2.4,8.2-4.1,11.4-7.4c1.6-1.8,2.9-4,3.4-6.3c0.1-0.5-0.1-0.8-0.6-1
	c-0.4-0.1-0.8,0.1-1,0.6c-0.1,0.6-0.2,1.1-0.4,1.6c0,0.1-0.1,0.2-0.1,0.4c-0.1,0.1-0.1,0.2-0.1,0.1c-0.1,0.1,0,0.1-0.1,0.2
	c-0.1,0.3-0.2,0.5-0.3,0.7C22,4,21.8,4.5,21.5,4.9C21.4,5,21.4,5,21.4,5.1c-0.1,0.1-0.1,0.3-0.1,0.1c-0.1,0.1-0.1,0.3-0.2,0.4
	c0,0.1-0.3,0.4-0.4,0.6c-0.4,0.4-0.7,0.7-1.1,1.1c-0.2,0.2-0.4,0.3-0.6,0.5C18.9,7.9,18.8,8,18.6,8c-0.1,0.1-0.1,0.1-0.1,0.1
	c-0.1,0.1-0.3,0.1-0.1,0.1c-0.8,0.6-1.7,1.1-2.6,1.8c-4,2.5-8.8,4.4-11.6,8.5c-1.5,2.2-2.3,4.6-2.8,7.2c-0.1,0.4,0.1,0.8,0.6,1
	C2.4,26.4,2.9,26.2,3,25.8L3,25.8z"/>
</svg>
