<?xml version="1.0" encoding="utf-8"?>
<!-- Generator: Adobe Illustrator 26.3.1, SVG Export Plug-In . SVG Version: 6.00 Build 0)  -->
<svg version="1.1" id="Calque_1" xmlns="http://www.w3.org/2000/svg" xmlns:xlink="http://www.w3.org/1999/xlink" x="0px" y="0px"
	 viewBox="0 0 34.5 23.5" style="enable-background:new 0 0 34.5 23.5;" xml:space="preserve">
<style type="text/css">
	.st0{fill:#FFFFFF;}
</style>
<g>
	<path class="st0" d="M1.3,4.6c1-0.7,1.9-1.2,3-1.7c0.1-0.1,0.3-0.1,0.4-0.2c0.1,0,0.1-0.1,0.2-0.1c-0.2,0.1,0.1,0,0.1-0.1
		c0.3-0.1,0.6-0.2,0.8-0.3C6.2,2.1,6.8,2,7.3,1.9c0.3-0.1,0.5-0.1,0.7-0.2c0.1,0,0.2,0,0.2-0.1c0.1,0,0.3-0.1,0.1,0
		c0.2,0,0.3-0.1,0.5-0.1c0.6-0.1,1.2-0.1,1.8-0.1c0.3,0,0.5,0.1,0.8,0.1c0.2,0,0.3,0.1,0.4,0.1c0.1,0,0.2,0,0.2,0
		c0.1,0,0.3,0.1,0.2,0C12.8,1.8,13.4,1.9,14,2c4.4,1,8.7,2.9,13.3,2.8c2.4-0.1,4.8-0.7,6.8-2c0.4-0.3,0.5-0.7,0.3-1.1
		c-0.2-0.3-0.7-0.5-1.1-0.3c-0.5,0.3-0.9,0.6-1.4,0.8c-0.1,0.1-0.2,0.1-0.4,0.2c-0.1,0-0.2,0.1-0.1,0c-0.1,0-0.1,0.1-0.2,0.1
		c-0.3,0.1-0.5,0.2-0.7,0.3c-0.5,0.2-1,0.3-1.5,0.4c-0.1,0-0.1,0-0.2,0.1c-0.1,0-0.3,0.1-0.1,0c-0.1,0-0.3,0.1-0.4,0.1
		c-0.3,0.1-0.6,0.1-0.8,0.1c-0.5,0-1,0-1.5,0c-0.3,0-0.5-0.1-0.8-0.1c-0.1,0-0.3,0-0.4-0.1c-0.1,0-0.1,0-0.2,0c-0.1,0-0.3-0.1-0.1,0
		c-1-0.1-2-0.4-3.1-0.6C17,1.3,12.3-0.7,7.4,0.2C4.9,0.7,2.5,1.8,0.4,3.3C0,3.5-0.1,4,0.1,4.4C0.4,4.7,0.9,4.9,1.3,4.6L1.3,4.6z"/>
	<path class="st0" d="M1.3,13.5c1-0.7,1.9-1.2,3-1.7c0.1-0.1,0.3-0.1,0.4-0.2c0.1-0.1,0.1-0.1,0.2-0.1c-0.2,0.1,0.1,0,0.1-0.1
		c0.3-0.1,0.6-0.2,0.8-0.3c0.5-0.2,1.1-0.4,1.6-0.5c0.3-0.1,0.5-0.1,0.7-0.2c0.1,0,0.2,0,0.2-0.1c0.1,0,0.3-0.1,0.1,0
		c0.2,0,0.3-0.1,0.5-0.1c0.6-0.1,1.2-0.1,1.8-0.1c0.3,0,0.5,0.1,0.8,0.1c0.2,0,0.3,0.1,0.4,0.1c0.1,0,0.2,0,0.2,0
		c0.1,0,0.3,0.1,0.2,0c0.6,0.1,1.2,0.2,1.8,0.3c4.4,1,8.7,2.9,13.3,2.8c2.4-0.1,4.8-0.7,6.8-2c0.4-0.3,0.5-0.7,0.3-1.1
		c-0.2-0.3-0.7-0.5-1.1-0.3c-0.5,0.3-0.9,0.6-1.4,0.8c-0.1,0.1-0.2,0.1-0.4,0.2c-0.1,0-0.2,0.1-0.1,0c-0.1,0-0.1,0.1-0.2,0.1
		c-0.3,0.1-0.5,0.2-0.7,0.3c-0.5,0.2-1,0.3-1.5,0.4c-0.1,0-0.1,0-0.2,0.1c-0.1,0-0.3,0.1-0.1,0c-0.1,0-0.3,0.1-0.4,0.1
		C28.3,12,27.9,12,27.7,12c-0.5,0-1,0-1.5,0c-0.3,0-0.5-0.1-0.8-0.1c-0.1,0-0.3,0-0.4-0.1c-0.1,0-0.1,0-0.2,0c-0.1,0-0.3-0.1-0.1,0
		c-1-0.1-2-0.4-3.1-0.6C17,10.1,12.3,8.2,7.4,9.1c-2.6,0.5-4.9,1.6-7.1,3.1c-0.4,0.2-0.5,0.7-0.3,1.1C0.4,13.6,0.9,13.8,1.3,13.5
		L1.3,13.5z"/>
	<path class="st0" d="M1.3,23.4c1-0.7,1.9-1.2,3-1.7c0.1-0.1,0.3-0.1,0.4-0.2c0.1,0,0.1-0.1,0.2-0.1c-0.2,0.1,0.1,0,0.1-0.1
		c0.3-0.1,0.6-0.2,0.8-0.3c0.5-0.2,1.1-0.4,1.6-0.5c0.3-0.1,0.5-0.1,0.7-0.2c0.1,0,0.2,0,0.2-0.1c0.1,0,0.3-0.1,0.1,0
		c0.2,0,0.3-0.1,0.5-0.1c0.6-0.1,1.2-0.1,1.8-0.1c0.3,0,0.5,0.1,0.8,0.1c0.2,0,0.3,0.1,0.4,0.1c0.1,0,0.2,0,0.2,0
		c0.1,0,0.3,0.1,0.2,0c0.6,0.1,1.2,0.2,1.8,0.3c4.4,1,8.7,2.9,13.3,2.8c2.4-0.1,4.8-0.7,6.8-2c0.4-0.3,0.5-0.7,0.3-1.1
		c-0.2-0.3-0.7-0.5-1.1-0.3c-0.5,0.3-0.9,0.6-1.4,0.8c-0.1,0.1-0.2,0.1-0.4,0.2c-0.1,0-0.2,0.1-0.1,0c-0.1,0-0.1,0.1-0.2,0.1
		c-0.3,0.1-0.5,0.2-0.7,0.3c-0.5,0.2-1,0.3-1.5,0.4c-0.1,0-0.1,0-0.2,0.1c-0.1,0-0.3,0.1-0.1,0c-0.1,0-0.3,0.1-0.4,0.1
		C28.3,22,27.9,22,27.7,22c-0.5,0-1,0-1.5,0c-0.3,0-0.5-0.1-0.8-0.1c-0.1,0-0.3,0-0.4-0.1c-0.1,0-0.1,0-0.2,0c-0.1,0-0.3-0.1-0.1,0
		c-1-0.1-2-0.4-3.1-0.6C17,20.1,12.3,18.1,7.4,19c-2.6,0.5-4.9,1.6-7.1,3.1c-0.4,0.2-0.5,0.7-0.3,1.1C0.4,23.4,0.9,23.6,1.3,23.4
		L1.3,23.4z"/>
</g>
</svg>
